<mxfile host="app.diagrams.net" modified="2023-06-26T17:41:17.578Z" agent="Mozilla/5.0 (Windows NT 10.0; Win64; x64) AppleWebKit/537.36 (KHTML, like Gecko) Chrome/114.0.0.0 Safari/537.36 Edg/114.0.1823.58" version="21.3.8" etag="EDUt0NKqghTBw6BVhkk1" type="github">
  <diagram name="Page-1" id="mvn6tCnARTkxNyPKDhiE">
    <mxGraphModel>
      <root>
        <mxCell id="0" />
        <mxCell id="1" parent="0" />
      </root>
    </mxGraphModel>
  </diagram>
</mxfile>
